# File created by Blade
# Date/Time:  Wed Apr 08 17:04:14 2015
#---------------------------------------------------------
:version 1.10
:name HOM
:units
  mass 1.0
  length 1.000000
  angle deg
:documentation
     Acclaim Skeleton File
:root
   axis xyz
   order TX TY TZ RX RY RZ
   position 0.000000 0.000000 0.000000
   orientation 0 0 0
:bonedata
   begin
      id 1
      name Spine_dum
      direction 0.000000 1.000000 0.000000
      length 5.893853
      axis 0.0 0.0 0.0 xyz
   end
   begin
      id 2
      name LeftUpLeg_dum
      direction 1.000000 0.000000 0.000000
      length 3.697939
      axis 0.0 0.0 0.0 xyz
   end
   begin
      id 3
      name RightUpLeg_dum
      direction -1.000000 0.000000 0.000000
      length 3.697939
      axis 0.0 0.0 0.0 xyz
   end
   begin
      id 4
      name Spine
      direction 0.000000 1.000000 0.000000
      length 0.000000
      axis 0.0 0.0 0.0 xyz
      dof rx ry rz
   end
   begin
      id 5
      name Spine_dum1
      direction 0.000000 1.000000 0.000000
      length 16.447146
      axis 0.0 0.0 0.0 xyz
   end
   begin
      id 6
      name Spine_dum2
      direction 0.000000 1.000000 0.000000
      length 10.900383
      axis 0.0 0.0 0.0 xyz
   end
   begin
      id 7
      name Spine_dum3
      direction 0.000000 1.000000 0.000000
      length 10.900383
      axis 0.0 0.0 0.0 xyz
   end
   begin
      id 8
      name Head
      direction 0.000000 1.000000 0.000000
      length 4.527550
      axis 0.0 0.0 0.0 xyz
      dof rx ry rz
   end
   begin
      id 9
      name LeftShoulder
      direction 1.000000 0.000000 0.000000
      length 8.219464
      axis 0.0 0.0 -90.0 xyz
      dof rx ry rz
   end
   begin
      id 10
      name LeftArm
      direction 1.000000 0.000000 0.000000
      length 11.094937
      axis 0.0 0.0 -90.0 xyz
      dof rx ry rz
   end
   begin
      id 11
      name LeftForeArm
      direction 1.000000 0.000000 0.000000
      length 9.103875
      axis 0.0 0.0 -90.0 xyz
      dof ry rz rx
   end
   begin
      id 12
      name LeftHand
      direction 0.000000 0.000000 0.000000
      length 0.000000
      axis 0.0 0.0 -90.0 xyz
      dof rx ry rz
   end
   begin
      id 13
      name LeftHand_dum1
      direction 0.000000 0.000000 0.000000
      length 0.000000
      axis 0.0 0.0 -90.0 xyz
   end
   begin
      id 14
      name LeftHand_dum2
      direction 1.000000 0.000000 0.000000
      length 3.937000
      axis 0.0 0.0 -90.0 xyz
   end
   begin
      id 15
      name LeftHandThumb1
      direction 0.000000 0.000000 1.000000
      length 3.937000
      axis 0.0 0.0 -90.0 xyz
      dof rx rz ry
   end
   begin
      id 16
      name RightShoulder
      direction -1.000000 0.000000 0.000000
      length 8.219464
      axis 0.0 0.0 90.0 xyz
      dof rx ry rz
   end
   begin
      id 17
      name RightArm
      direction -1.000000 0.000000 0.000000
      length 11.094937
      axis 0.0 0.0 90.0 xyz
      dof rx ry rz
   end
   begin
      id 18
      name RightForeArm
      direction -1.000000 0.000000 0.000000
      length 9.103875
      axis 0.0 0.0 90.0 xyz
      dof ry rz rx
   end
   begin
      id 19
      name RightHand
      direction 0.000000 0.000000 0.000000
      length 0.000000
      axis 0.0 0.0 90.0 xyz
      dof rx ry rz
   end
   begin
      id 20
      name RightHand_dum1
      direction 0.000000 0.000000 0.000000
      length 0.000000
      axis 0.0 0.0 90.0 xyz
   end
   begin
      id 21
      name RightHand_dum2
      direction -1.000000 0.000000 0.000000
      length 3.937000
      axis 0.0 0.0 90.0 xyz
   end
   begin
      id 22
      name RightHandThumb1
      direction 0.000000 0.000000 1.000000
      length 3.937000
      axis 0.0 0.0 90.0 xyz
      dof rx rz ry
   end
   begin
      id 23
      name LeftUpLeg
      direction 0.000000 -1.000000 0.000000
      length 16.181467
      axis 0.0 0.0 0.0 xyz
      dof rx ry rz
   end
   begin
      id 24
      name LeftLeg
      direction 0.000000 -1.000000 0.000000
      length 16.501392
      axis 0.0 0.0 0.0 xyz
      dof rx ry rz
   end
   begin
      id 25
      name LeftFoot
      direction 0.000000 -0.258819 0.965926
      length 6.408245
      axis 15.0 0.0 0.0 xyz
      dof rx ry rz
   end
   begin
      id 26
      name LeftToeBase
      direction 0.000000 0.000000 1.000000
      length 2.952750
      axis 0.0 0.0 0.0 xyz
      dof rx ry rz
   end
   begin
      id 27
      name RightUpLeg
      direction 0.000000 -1.000000 0.000000
      length 16.181467
      axis 0.0 0.0 0.0 xyz
      dof rx ry rz
   end
   begin
      id 28
      name RightLeg
      direction 0.000000 -1.000000 0.000000
      length 16.501392
      axis 0.0 0.0 0.0 xyz
      dof rx ry rz
   end
   begin
      id 29
      name RightFoot
      direction 0.000000 -0.258819 0.965926
      length 6.408245
      axis 15.0 0.0 0.0 xyz
      dof rx ry rz
   end
   begin
      id 30
      name RightToeBase
      direction 0.000000 0.000000 1.000000
      length 2.952750
      axis 0.0 0.0 0.0 xyz
      dof rx ry rz
   end
:hierarchy
   begin
      root Spine_dum LeftUpLeg_dum RightUpLeg_dum
      Spine_dum Spine
      LeftUpLeg_dum LeftUpLeg
      RightUpLeg_dum RightUpLeg
      Spine Spine_dum1 Spine_dum2 Spine_dum3
      Spine_dum1 Head
      Spine_dum2 LeftShoulder
      Spine_dum3 RightShoulder
      LeftShoulder LeftArm
      LeftArm LeftForeArm
      LeftForeArm LeftHand
      LeftHand LeftHand_dum1 LeftHand_dum2
      LeftHand_dum1 LeftHandThumb1
      RightShoulder RightArm
      RightArm RightForeArm
      RightForeArm RightHand
      RightHand RightHand_dum1 RightHand_dum2
      RightHand_dum1 RightHandThumb1
      LeftUpLeg LeftLeg
      LeftLeg LeftFoot
      LeftFoot LeftToeBase
      RightUpLeg RightLeg
      RightLeg RightFoot
      RightFoot RightToeBase
   end

# File created by Blade
# Date/Time:  Wed Apr 08 17:04:22 2015
# Frame Rate: 120.000 fps
#------------------------------------------------------
:FULLY-SPECIFIED
:DEGREES
188
root 4.312850 35.950064 3.855442 -158.274805 -68.166981 178.266386
Spine -16.426236 -20.159115 -5.466352
Head 32.770775 -14.402401 -1.885238
LeftShoulder 17.547825 -9.208696 31.455084
LeftArm 103.288263 43.922743 -40.398501
LeftForeArm 22.977057 -0.000000 93.043794
LeftHand -23.737478 -0.000000 21.588100
LeftHandThumb1 -26.253704 0.000000 33.147579
RightShoulder -2.243085 -51.693280 -33.518514
RightArm 64.411723 -23.330611 2.696139
RightForeArm -25.311402 -0.000000 49.060998
RightHand 16.734211 -0.000000 -28.175209
RightHandThumb1 -24.326973 -0.000000 -32.862282
LeftUpLeg -21.140867 19.206477 -4.468537
LeftLeg 15.409531 -0.000000 -0.000000
LeftFoot -18.009482 14.969653 -15.557787
LeftToeBase 9.281868 -0.000000 -0.000000
RightUpLeg -30.346015 2.219373 -11.410474
RightLeg 15.983399 -0.000000 -0.000000
RightFoot -6.585558 7.445560 17.780709
RightToeBase 12.763950 -0.000000 -0.000000
189
root 4.314003 35.950565 3.842732 -158.327812 -68.144478 178.299234
Spine -16.418017 -20.154941 -5.521536
Head 32.769778 -14.345938 -1.969430
LeftShoulder 17.567685 -9.187306 31.376421
LeftArm 103.133977 43.902464 -40.702031
LeftForeArm 23.187295 0.000000 93.087923
LeftHand -23.735332 0.000000 21.456959
LeftHandThumb1 -26.253704 0.000000 33.147579
RightShoulder -2.371778 -51.731258 -33.468119
RightArm 64.138117 -22.748529 2.575802
RightForeArm -25.825060 0.000000 51.978603
RightHand 14.750438 0.000000 -24.374788
RightHandThumb1 -24.326973 -0.000000 -32.862282
LeftUpLeg -21.118046 19.232289 -4.434721
LeftLeg 15.423593 -0.000000 -0.000000
LeftFoot -18.006749 14.971437 -15.571782
LeftToeBase 9.278981 -0.000000 -0.000000
RightUpLeg -30.332463 2.257070 -11.386203
RightLeg 15.995179 -0.000000 -0.000000
RightFoot -6.599737 7.445400 17.764075
RightToeBase 12.796952 -0.000000 -0.000000
190
root 4.315632 35.951199 3.827841 -158.398433 -68.142487 178.355215
Spine -16.417975 -20.159738 -5.560903
Head 32.779934 -14.262416 -2.065700
LeftShoulder 17.579564 -9.164789 31.291115
LeftArm 103.001940 43.874759 -40.985590
LeftForeArm 23.545103 0.000000 93.101750
LeftHand -23.770161 0.000000 21.342731
LeftHandThumb1 -26.253704 0.000000 33.147579
RightShoulder -2.498856 -51.763592 -33.400635
RightArm 63.856811 -22.144650 2.522771
RightForeArm -26.241636 -0.000000 55.050156
RightHand 12.452846 -0.000000 -19.725438
RightHandThumb1 -24.326973 -0.000000 -32.862282
LeftUpLeg -21.096632 19.251941 -4.384711
LeftLeg 15.430626 -0.000000 -0.000000
LeftFoot -18.002333 14.970360 -15.591224
LeftToeBase 9.276711 -0.000000 -0.000000
RightUpLeg -30.310037 2.290911 -11.346109
RightLeg 15.994741 -0.000000 -0.000000
RightFoot -6.606742 7.424982 17.720199
RightToeBase 12.745889 -0.000000 -0.000000
191
root 4.316439 35.952039 3.812564 -158.449924 -68.169106 178.400877
Spine -16.432608 -20.167644 -5.581708
Head 32.779913 -14.159495 -2.207346
LeftShoulder 17.568741 -9.142054 31.202549
LeftArm 102.909272 43.829030 -41.238948
LeftForeArm 23.822944 0.000000 93.105751
LeftHand -23.912209 -0.000000 21.281882
LeftHandThumb1 -26.253704 0.000000 33.147579
RightShoulder -2.625046 -51.849366 -33.323279
RightArm 63.566810 -21.474741 2.577678
RightForeArm -26.676517 0.000000 58.219280
RightHand 9.760920 -0.000000 -14.623071
RightHandThumb1 -24.326973 -0.000000 -32.862282
LeftUpLeg -21.082215 19.278984 -4.342005
LeftLeg 15.424273 -0.000000 -0.000000
LeftFoot -17.975779 14.943249 -15.587966
LeftToeBase 9.261107 -0.000000 -0.000000
RightUpLeg -30.287714 2.305012 -11.307167
RightLeg 15.994362 -0.000000 -0.000000
RightFoot -6.625125 7.415753 17.739844
RightToeBase 12.782375 -0.000000 -0.000000
192
root 4.317778 35.952901 3.797027 -158.501946 -68.210467 178.449733
Spine -16.454197 -20.178127 -5.594729
Head 32.795695 -14.059355 -2.356207
LeftShoulder 17.569974 -9.138292 31.129832
LeftArm 102.783549 43.789934 -41.516261
LeftForeArm 24.113562 0.000000 93.099814
LeftHand -23.899312 -0.000000 21.129720
LeftHandThumb1 -26.253704 0.000000 33.147579
RightShoulder -2.769556 -51.958185 -33.231501
RightArm 63.452345 -20.831748 2.482151
RightForeArm -27.296501 0.000000 61.287920
RightHand 7.580360 -0.000000 -9.562936
RightHandThumb1 -24.326973 -0.000000 -32.862282
LeftUpLeg -21.068083 19.286353 -4.290782
LeftLeg 15.412709 -0.000000 -0.000000
LeftFoot -17.953492 14.929812 -15.561694
LeftToeBase 9.261018 -0.000000 -0.000000
RightUpLeg -30.267023 2.319603 -11.268044
RightLeg 15.999463 -0.000000 -0.000000
RightFoot -6.644256 7.387719 17.737299
RightToeBase 12.762984 -0.000000 -0.000000
193
root 4.320284 35.953615 3.781391 -158.537021 -68.271680 178.486029
Spine -16.469258 -20.182825 -5.621610
Head 32.794268 -13.999944 -2.487674
LeftShoulder 17.578355 -9.166991 31.090432
LeftArm 102.697356 43.722603 -41.736390
LeftForeArm 24.356801 0.000000 93.108736
LeftHand -23.797186 0.000000 20.821082
LeftHandThumb1 -26.253704 0.000000 33.147579
RightShoulder -2.894470 -52.026498 -33.162800
RightArm 63.416492 -20.270363 2.387703
RightForeArm -27.676704 -0.000000 64.318904
RightHand 5.241108 -0.000000 -5.158606
RightHandThumb1 -24.326973 -0.000000 -32.862282
LeftUpLeg -21.069264 19.299443 -4.246389
LeftLeg 15.410106 -0.000000 -0.000000
LeftFoot -17.922983 14.884205 -15.554067
LeftToeBase 9.249145 -0.000000 -0.000000
RightUpLeg -30.251230 2.310380 -11.223571
RightLeg 16.009462 -0.000000 -0.000000
RightFoot -6.666660 7.374461 17.754916
RightToeBase 12.784778 -0.000000 -0.000000
194
root 4.321133 35.955684 3.765151 -158.628159 -68.321259 178.542453
Spine -16.501133 -20.238571 -5.632671
Head 32.937970 -13.840914 -2.655135
LeftShoulder 17.610839 -9.102299 31.045685
LeftArm 102.507262 43.594667 -42.027965
LeftForeArm 24.548111 -0.000000 93.106734
LeftHand -23.654554 -0.000000 20.623083
LeftHandThumb1 -26.253704 0.000000 33.147579
RightShoulder -2.801973 -52.110668 -33.262110
RightArm 63.460654 -19.692329 2.298111
RightForeArm -27.922810 -0.000000 67.268794
RightHand 3.472295 0.000000 -0.771301
RightHandThumb1 -24.326973 -0.000000 -32.862282
LeftUpLeg -21.013682 19.325028 -4.185676
LeftLeg 15.377911 -0.000000 -0.000000
LeftFoot -17.876966 14.867743 -15.499941
LeftToeBase 9.254063 -0.000000 -0.000000
RightUpLeg -30.196119 2.327255 -11.176623
RightLeg 16.012118 -0.000000 -0.000000
RightFoot -6.669152 7.344289 17.783853
RightToeBase 12.752699 -0.000000 -0.000000
195
root 4.321394 35.957542 3.747998 -158.716338 -68.381479 178.609034
Spine -16.497273 -20.109828 -5.709971
Head 33.015311 -13.912333 -2.748746
LeftShoulder 17.780979 -9.210898 30.998842
LeftArm 102.412432 43.478265 -42.217365
LeftForeArm 24.785046 -0.000000 93.084294
LeftHand -24.078211 -0.000000 20.583234
LeftHandThumb1 -26.253704 0.000000 33.147579
RightShoulder -3.015212 -52.218496 -33.109566
RightArm 63.594134 -19.187783 2.171537
RightForeArm -28.096127 0.000000 70.142353
RightHand 2.440703 0.000000 3.377760
RightHandThumb1 -24.326973 -0.000000 -32.862282
LeftUpLeg -20.969407 19.330559 -4.117011
LeftLeg 15.347690 -0.000000 -0.000000
LeftFoot -17.851148 14.840449 -15.495500
LeftToeBase 9.260412 -0.000000 -0.000000
RightUpLeg -30.149937 2.335233 -11.121492
RightLeg 16.016136 -0.000000 -0.000000
RightFoot -6.686178 7.315814 17.797267
RightToeBase 12.794862 -0.000000 -0.000000
196
root 4.321342 35.959545 3.732961 -158.775888 -68.445665 178.652423
Spine -16.491595 -19.978697 -5.799728
Head 33.066287 -13.984805 -2.786760
LeftShoulder 17.930230 -9.361980 30.989471
LeftArm 102.271246 43.393367 -42.485085
LeftForeArm 24.876598 -0.000000 92.968791
LeftHand -24.276157 -0.000000 20.709169
LeftHandThumb1 -26.253704 0.000000 33.147579
RightShoulder -3.276192 -52.329930 -32.903905
RightArm 63.824951 -18.739839 1.862003
RightForeArm -28.641541 -0.000000 72.975366
RightHand 1.381427 -0.000000 7.108561
RightHandThumb1 -24.326973 -0.000000 -32.862282
LeftUpLeg -20.932291 19.331939 -4.063107
LeftLeg 15.313760 -0.000000 -0.000000
LeftFoot -17.807461 14.819318 -15.476578
LeftToeBase 9.262131 -0.000000 -0.000000
RightUpLeg -30.112646 2.327602 -11.073729
RightLeg 16.026803 -0.000000 -0.000000
RightFoot -6.701715 7.289532 17.804522
RightToeBase 12.795115 -0.000000 -0.000000
197
root 4.320195 35.961148 3.717496 -158.877430 -68.495178 178.690617
Spine -16.430973 -19.824287 -5.914834
Head 33.128389 -14.051052 -2.829210
LeftShoulder 18.074565 -9.545775 30.965662
LeftArm 102.094487 43.299404 -42.714062
LeftForeArm 25.037355 -0.000000 92.872888
LeftHand -24.127423 0.000000 20.640600
LeftHandThumb1 -26.253704 0.000000 33.147579
RightShoulder -3.536328 -52.462009 -32.706462
RightArm 64.144226 -18.313788 1.565392
RightForeArm -29.320458 0.000000 75.788182
RightHand 0.163825 -0.000000 10.393418
RightHandThumb1 -24.326973 -0.000000 -32.862282
LeftUpLeg -20.837303 19.345482 -3.996838
LeftLeg 15.271282 -0.000000 -0.000000
LeftFoot -17.773009 14.802573 -15.447103
LeftToeBase 9.261450 -0.000000 -0.000000
RightUpLeg -30.027881 2.326513 -11.022164
RightLeg 16.033925 -0.000000 -0.000000
RightFoot -6.726271 7.267351 17.793186
RightToeBase 12.797839 -0.000000 -0.000000
198
root 4.320977 35.960903 3.705447 -158.860715 -68.477909 178.653608
Spine -16.467067 -19.717919 -5.973313
Head 33.152915 -13.944015 -3.007538
LeftShoulder 18.189836 -9.543939 30.763863
LeftArm 101.926815 43.148322 -42.882824
LeftForeArm 25.185000 -0.000000 92.920004
LeftHand -24.310808 -0.000000 20.242916
LeftHandThumb1 -26.253704 0.000000 33.147579
RightShoulder -3.564083 -52.502697 -32.828079
RightArm 64.577555 -17.920922 1.324274
RightForeArm -29.596345 -0.000000 78.503741
RightHand -0.843331 -0.000000 13.464031
RightHandThumb1 -24.326973 -0.000000 -32.862282
LeftUpLeg -20.797637 19.396539 -3.998381
LeftLeg 15.237924 -0.000000 -0.000000
LeftFoot -17.748164 14.772673 -15.449159
LeftToeBase 9.260464 -0.000000 -0.000000
RightUpLeg -30.032372 2.354426 -11.028753
RightLeg 16.077584 -0.000000 -0.000000
RightFoot -6.744636 7.281724 17.797715
RightToeBase 12.781842 -0.000000 -0.000000
